<?xml version="1.0" standalone="no"?>
<!DOCTYPE svg PUBLIC "-//W3C//DTD SVG 1.1//EN" "http://www.w3.org/Graphics/SVG/1.1/DTD/svg11.dtd">
<svg xmlns="http://www.w3.org/2000/svg">
<metadata>Copyright (C) 2017 by original authors @ fontello.com</metadata>
<defs>
<font id="hud_font_a1" horiz-adv-x="1000" >
<font-face font-family="hud_font_a1" font-weight="400" font-stretch="normal" units-per-em="1000" ascent="850" descent="-150" />
<missing-glyph horiz-adv-x="1000" />
<glyph glyph-name="attention" unicode="&#x21;" d="M571 83v106q0 8-5 13t-12 5h-108q-7 0-12-5t-5-13v-106q0-8 5-13t12-6h108q7 0 12 6t5 13z m-1 208l10 257q0 6-5 10-7 6-14 6h-122q-6 0-14-6-5-4-5-12l9-255q0-5 6-9t13-3h103q8 0 14 3t5 9z m-7 522l428-786q20-35-1-70-9-17-26-26t-35-10h-858q-18 0-35 10t-26 26q-21 35-1 70l429 786q9 17 26 27t36 10 36-10 27-27z" horiz-adv-x="1000" />

<glyph glyph-name="comment" unicode="&#x24;" d="M1000 350q0-97-67-179t-182-130-251-48q-39 0-81 4-110-97-257-135-27-8-63-12-10-1-17 5t-10 16v1q-2 2 0 6t1 6 2 5l4 5t4 5 4 5q4 5 17 19t20 22 17 22 18 28 15 33 15 42q-88 50-138 123t-51 157q0 73 40 139t106 114 160 76 194 28q136 0 251-48t182-130 67-179z" horiz-adv-x="1000" />

<glyph glyph-name="plus" unicode="&#x2b;" d="M786 439v-107q0-22-16-38t-38-15h-232v-233q0-22-16-37t-38-16h-107q-22 0-38 16t-15 37v233h-232q-23 0-38 15t-16 38v107q0 23 16 38t38 16h232v232q0 22 15 38t38 16h107q23 0 38-16t16-38v-232h232q22 0 38-16t16-38z" horiz-adv-x="785" />

<glyph glyph-name="minus" unicode="&#x2d;" d="M786 439v-107q0-22-16-38t-38-15h-678q-23 0-38 15t-16 38v107q0 23 16 38t38 16h678q22 0 38-16t16-38z" horiz-adv-x="785" />

<glyph glyph-name="mail" unicode="&#x30;" d="M929 11v428q-18-20-39-37-149-114-238-188-28-24-46-38t-48-27-57-13h-2q-26 0-57 13t-48 27l-46 38q-88 74-238 188-21 17-39 37v-428q0-8 6-13t12-5h822q7 0 12 5t6 13z m0 586v14l-2 14-3 5q-3 5-5 4t-8 2h-822q-7 0-12-6t-6-12q0-94 82-159l224-177q4-2 20-16t25-21 25-18 28-15 24-5h2q11 0 24 5t28 15 25 18 25 21 20 16l224 177q30 24 56 65t26 73z m71 21v-607q0-37-26-63t-63-27h-822q-36 0-63 27t-26 63v607q0 37 26 63t63 26h822q37 0 63-26t26-63z" horiz-adv-x="1000" />

<glyph glyph-name="diamond" unicode="&#x31;" d="M118 421l348-371-167 371h-181z m453-430l195 430h-389z m-271 502l114 214h-146l-161-214h193z m377-443l348 371h-181z m-296 443h381l-114 214h-153z m462 0h193l-161 214h-146z m78 271l215-286q7-10 7-23t-10-22l-535-572q-10-11-27-11t-26 11l-535 572q-9 9-10 22t7 23l215 286q10 15 28 15h643q18 0 28-15z" horiz-adv-x="1142" />

<glyph glyph-name="trash" unicode="&#x32;" d="M286 82v393q0 8-5 13t-13 5h-36q-8 0-13-5t-5-13v-393q0-8 5-13t13-5h36q8 0 13 5t5 13z m143 0v393q0 8-5 13t-13 5h-36q-8 0-13-5t-5-13v-393q0-8 5-13t13-5h36q8 0 13 5t5 13z m142 0v393q0 8-5 13t-12 5h-36q-8 0-13-5t-5-13v-393q0-8 5-13t13-5h36q7 0 12 5t5 13z m-303 554h250l-27 65q-4 5-9 6h-177q-6-1-10-6z m518-18v-36q0-8-5-13t-13-5h-54v-529q0-46-26-80t-63-34h-464q-37 0-63 33t-27 79v531h-53q-8 0-13 5t-5 13v36q0 8 5 13t13 5h172l39 93q9 21 31 35t44 15h178q22 0 44-15t30-35l39-93h173q8 0 13-5t5-13z" horiz-adv-x="785" />

<glyph glyph-name="home" unicode="&#x33;" d="M786 296v-267q0-15-11-26t-25-10h-214v214h-143v-214h-214q-15 0-25 10t-11 26v271l321 264 321-264q1-1 1-4z m124 39l-34-41q-5-5-12-6h-2q-7 0-12 3l-386 322-386-322q-7-4-13-4-7 2-12 7l-35 41q-4 5-3 13t6 12l401 334q18 15 42 15t43-15l136-114v109q0 8 5 13t13 5h107q8 0 13-5t5-13v-227l122-102q5-5 6-12t-4-13z" horiz-adv-x="928" />

<glyph glyph-name="pencil" unicode="&#x34;" d="M203-7l50 51-131 131-51-51v-60h72v-71h60z m291 518q0 12-12 12-5 0-9-4l-303-302q-4-4-4-10 0-12 13-12 5 0 9 4l303 302q3 4 3 10z m-30 107l232-232-464-465h-232v233z m381-54q0-29-20-50l-93-93-232 233 93 92q20 21 50 21t51-21l131-131q20-22 20-51z" horiz-adv-x="857" />

<glyph glyph-name="eye" unicode="&#x35;" d="M929 314q-85 132-213 197 34-58 34-125 0-104-73-177t-177-73-177 73-73 177q0 67 34 125-128-65-213-197 75-114 187-182t242-68 242 68 187 182z m-402 215q0 11-8 19t-19 7q-70 0-120-50t-50-119q0-12 8-19t19-8 19 8 8 19q0 48 34 82t82 34q11 0 19 8t8 19z m473-215q0-19-11-38-78-129-210-206t-279-77-279 77-210 206q-11 19-11 38t11 39q78 128 210 205t279 78 279-78 210-205q11-20 11-39z" horiz-adv-x="1000" />

<glyph glyph-name="off" unicode="&#x36;" d="M857 350q0-87-34-166t-91-137-137-92-166-34-167 34-136 92-92 137-34 166q0 102 45 191t126 151q24 18 54 14t46-28q18-23 14-53t-28-47q-54-41-84-101t-30-127q0-58 22-111t62-91 91-61 111-23 110 23 92 61 61 91 22 111q0 68-30 127t-84 101q-24 18-28 47t14 53 47 28 53-14q81-61 126-151t45-191z m-357 429v-358q0-29-21-50t-50-21-51 21-21 50v358q0 29 21 50t51 21 50-21 21-50z" horiz-adv-x="857" />

<glyph glyph-name="folder" unicode="&#x37;" d="M929 511v-393q0-51-37-88t-88-37h-679q-51 0-88 37t-37 88v536q0 51 37 88t88 37h179q51 0 88-37t37-88v-18h375q51 0 88-37t37-88z" horiz-adv-x="928" />

<glyph glyph-name="folder-open" unicode="&#x38;" d="M1049 319q0-18-18-37l-187-221q-24-28-67-48t-81-20h-607q-19 0-33 7t-14 24 16 37l188 221q24 28 67 48t80 20h607q19 0 34-7t15-24z m-192 192v-90h-464q-53 0-110-26t-92-67l-188-221-2-3-1 7q-1 5 0 7v536q0 51 37 88t88 37h179q51 0 88-37t37-88v-18h303q51 0 88-37t37-88z" horiz-adv-x="1071" />

<glyph glyph-name="globe" unicode="&#x39;" d="M429 779q116 0 215-58t156-156 57-215-57-215-156-156-215-58-216 58-155 156-58 215 58 215 155 156 216 58z m152-291l-5-5t-7-6q1 0 2 3t3 6 2 4q3 4 12 8t29 7q19 5 29-6-1 1 5 7t8 7 8 2 9 5l1 12q-7-1-10 4t-3 12q0-2-4-5 0 4-2 5t-7-1-5-1q-5 2-8 5t-5 9-2 9-5 5-5 6l-6 10q-1 1-3 1t-4-3-4-5-2-3q-2 1-4 1t-2-1-3-2-3-2-4-1-5-1q8 3-1 6-5 2-9 1 5 3 5 7t-5 8h3q-1 2-5 5t-10 4-7 4q-5 3-19 5t-17 0-4-5 2-8l2-7q1-4-3-7t-3-7 7-9 6-12q-2-4-9-9l-9-6q-3-5-1-11t6-9q1-1 1-2t-2-3-3-2-4-2l-1-1q-7-3-12 3t-7 15q-4 14-9 17-13 4-17-1-2 7-22 15-14 5-33 2 4 0 0 9t-10 6q1 3 2 10t0 7q2 7 7 13l9 12q2 3 1 4 19-3 28 6 2 2 6 9l6 10q5 3 8 3t8-3 8-3q8-1 8 6t-4 11q7 0 2 10-3 4-5 5-6 2-15-3-4-2 2-4-1 0-6-6l-9-10q-4-4-9 3l-3 7q-3 7-5 8-5 0-9-9 1 5-6 9t-14 4q11 7-4 15-4 3-12 3t-11-2l-3-7q-1-3 3-4t6-3 6-2 5-2q8-6 5-8-1 0-5-2t-6-2-4-2 0-8-1-8q-3 3-5 10t-4 9q4-5-14-4l-5 1q-3 0-9-1t-12-1-7 5q-3 4 0 11 0 2 2 1l-12 10q-25-8-52-23 3 0 6 1l8 3q5 2 5 4 19 7 24 3l3 3 11-14q-4 3-17 1-11-4-12-7 4-7 2-10l-6 6q-4 4-8 6t-8 3q-9 0-13-1-81-45-131-124 4-4 7-4t3-5 1-6 6 1q5-4 2-10 1 0 25-15 10-10 11-12 2-6-5-10l-5 5q-4 4-5 2t0-10 6-7q-4 0-5-9l-2-20q-1-11 0-13l1-1q-2-6 3-19t12-11q-7-1 11-24l4-5 7-4 9-6q4-3 6-5t5-13 8-13q-2-3 5-11t6-13q-1 0-2-1t-1 0q2-4 9-8t8-6 1-7 2-6 4-1q2 11-13 34-8 14-9 17t-4 8-2 8h3q2 0 5-2l5-4q-1-4 1-10t7-10 10-11 6-7q4-4 8-11t0-8q5 0 11-5t10-10 4-16 3-13 5-8 7-5l9-5 7-3 22-13q6-2 9-2t8 1l8 2q8 1 16-8t12-12q20-10 30-6-1 0 1-4l4-9q2-5 5-8t3-5q3-3 10-8t10-8q4 2 4 5-1-5 4-11t10-6q8 2 8 18-17-9-27 10l-2 3q-2 3-2 5t-1 4 0 5 2 1q5 0 6 2t-1 7-2 9-6 10-7 8q-3-5-9-4t-9 5q0-1-1-3t-1-4h-8q1 2 1 10t2 13l8 15q3 5 2 7l-3 5q-2 3-9 1-11 0-15-11-1-2-2-6t-2-6-5-4-14-1-13 3q-8 4-13 16t-5 19 1 16l2 14q1 5-3 14 2 1 5 5l5 6q2 1 3 1h2q1 0 3 1t2 3-3 2l-2 1q4-1 16 1t15-1q9-6 12 1l-1 6q-1 5 0 7 3-15 16-5 2-1 9-3t9-2 4-3l3-3q1-1 3 0t5 4q5-8 7-13 6-23 10-25t6-1 3 5 0 8-1 7l-1 4v15q-8 2-10 7t0 10 9 10q0 1 4 2t9 4l7 4q12 11 8 20 4 0 6 5l-2 2q-2 2-5 2t-2 2q5 2 1 8 3 2 4 7t4 5q5-7 12-1 4 5 1 9 2 4 11 6t10 5q4-1 5 1t0 7 2 7 8 5 8 2l9 7q2 2 0 2 10-1 18 6 5 6-4 11 2 3-2 5t-8 3q2 1 7 1t5 1q9 5-4 9-9 2-24-7z m-90-490q114 21 195 106-1 2-7 2t-7 2l-13 5q1 4-1 7t-5 5l-21 15q-1 1-4 2l-5 2q-2 1-5-1l-2-1q-2 0-3-1l-5-3v-2q-12 10-20 13-3 0-7 3l-5 4q-1 1-6 0t-6-4q-3-2-4-8l-1-7q-4 3 0 10t2 10-7 2-6-2l-7-5q-6-4-5-3t-4-3-5-5q-2-2-4-6t-2-7q-1 3-7 4t-5 3q1-5 2-19t3-22q4-17-7-26-15-14-16-23-2-12 7-14 0-4-5-12t-4-11 2-10z" horiz-adv-x="857" />

<glyph glyph-name="comment-empty" unicode="&#x3c;" d="M500 636q-114 0-213-39t-157-105-59-142q0-62 40-119t113-98l48-28-15-53q-13-51-39-97 85 36 154 96l24 21 32-3q38-5 72-5 114 0 213 39t157 105 59 142-59 142-157 105-213 39z m500-286q0-97-67-179t-182-130-251-48q-39 0-81 4-110-97-257-135-27-8-63-12h-3q-8 0-15 6t-9 15v1q-2 2 0 6t1 6 2 5l4 5t4 5 4 5q4 5 17 19t20 22 17 22 18 28 15 33 15 42q-88 50-138 123t-51 157q0 97 67 179t182 130 251 48 251-48 182-130 67-179z" horiz-adv-x="1000" />

<glyph glyph-name="chat-empty" unicode="&#x3e;" d="M393 636q-85 0-160-29t-118-79-44-107q0-45 30-88t83-73l54-32-19-46q19 11 34 21l25 18 30-6q43-8 85-8 85 0 160 29t118 79 43 106-43 107-118 79-160 29z m0 71q106 0 197-38t143-104 53-144-53-143-143-104-197-38q-48 0-98 9-70-49-155-72-21-5-48-9h-2q-6 0-12 5t-6 12q-1 1-1 3t1 4 1 3l1 3t2 3 2 3 3 3 2 2q3 3 13 14t15 16 12 17 14 21 11 25q-69 40-108 98t-40 125q0 78 53 144t143 104 197 38z m459-652q5-14 11-25t14-21 13-16 14-17 13-14q0 0 2-2t3-3 2-3 2-3l1-3t1-3 1-4-1-3q-2-8-7-13t-12-4q-28 4-48 9-86 23-156 72-50-9-98-9-151 0-263 74 32-3 49-3 90 0 172 25t148 72q69 52 107 119t37 141q0 43-13 85 72-39 114-99t42-128q0-67-40-126t-108-98z" horiz-adv-x="1000" />

<glyph glyph-name="terminal" unicode="&#x3f;" d="M327 302l-261-261q-5-5-12-5t-13 5l-28 28q-6 6-6 13t6 13l219 219-219 220q-6 5-6 12t6 13l28 28q5 6 13 6t12-6l261-260q5-5 5-13t-5-12z m602-256v-35q0-8-5-13t-13-5h-536q-8 0-13 5t-5 13v35q0 8 5 13t13 5h536q8 0 13-5t5-13z" horiz-adv-x="928.6" />

<glyph glyph-name="check" unicode="&#x41;" d="M786 331v-177q0-67-47-114t-114-47h-464q-67 0-114 47t-47 114v464q0 66 47 113t114 48h464q35 0 65-14 9-4 11-13t-6-16l-27-28q-6-5-13-5-2 0-5 1-13 3-25 3h-464q-37 0-63-26t-27-63v-464q0-37 27-63t63-27h464q37 0 63 27t26 63v141q0 8 5 13l36 35q6 6 13 6 3 0 7-2 11-4 11-16z m129 273l-455-454q-13-14-31-14t-32 14l-240 240q-14 13-14 31t14 32l61 62q14 13 32 13t32-13l147-147 361 361q13 13 31 13t32-13l62-61q13-14 13-32t-13-32z" horiz-adv-x="928" />

<glyph glyph-name="target" unicode="&#x42;" d="M668 279h-61q-14 0-25 10t-11 25v72q0 14 11 25t25 10h61q-18 61-63 106t-105 62v-60q0-15-11-26t-25-10h-71q-15 0-25 10t-11 26v60q-60-17-105-62t-63-106h61q15 0 25-10t11-25v-72q0-14-11-25t-25-11h-61q18-60 63-105t105-62v60q0 15 11 25t25 11h71q15 0 25-11t11-25v-60q60 17 105 62t63 105v1z m189 107v-72q0-14-10-25t-26-10h-79q-21-90-87-156t-155-86v-80q0-14-11-25t-25-11h-71q-15 0-25 11t-11 25v80q-90 21-155 86t-86 156h-80q-15 0-25 10t-11 25v72q0 14 11 25t25 10h80q20 90 86 156t155 86v80q0 14 11 25t25 11h71q15 0 25-11t11-25v-80q90-21 155-86t87-156h79q15 0 26-10t10-25z" horiz-adv-x="857" />

<glyph glyph-name="angle-circled-up" unicode="&#x43;" d="M650 214l57 57q11 11 11 25t-11 26l-253 253q-11 10-25 10t-26-10l-253-254q-10-10-10-25t10-25l57-57q11-10 25-10t25 10l172 172 171-172q11-10 25-10t25 10z m207 136q0-117-57-215t-156-156-215-58-216 58-155 156-58 215 58 215 155 156 216 58 215-58 156-156 57-215z" horiz-adv-x="857" />

<glyph glyph-name="star" unicode="&#x44;" d="M929 489q0-12-15-27l-203-197 48-279q1-4 1-12 0-11-6-19t-16-9-23 7l-251 132-250-132q-13-7-23-7t-17 9-6 19q0 4 1 12l48 279-203 197q-14 15-14 27 0 21 31 26l280 40 126 254q11 23 27 23t28-23l125-254 280-40q32-5 32-26z" horiz-adv-x="928" />

<glyph glyph-name="inbox" unicode="&#x45;" d="M571 314h176q0 2-1 5t-2 4l-118 277h-395l-118-277q-1-1-2-4t-1-5h176l53-107h179z m286-16v-269q0-15-10-26t-26-10h-785q-15 0-25 10t-11 26v269q0 34 14 68l133 308q5 14 20 24t29 9h465q14 0 29-9t20-24l133-308q14-34 14-68z" horiz-adv-x="857" />

<glyph glyph-name="star-empty" unicode="&#x46;" d="M634 290l171 165-235 35-106 213-105-213-236-35 171-165-41-235 211 111 211-111z m295 199q0-12-15-27l-203-197 48-279q1-4 1-12 0-28-23-28-10 0-22 7l-251 132-250-132q-13-7-23-7t-17 9-6 19q0 4 1 12l48 279-203 197q-14 15-14 27 0 21 31 26l280 40 126 254q11 23 27 23t28-23l125-254 280-40q32-5 32-26z" horiz-adv-x="928" />

<glyph glyph-name="heart-empty" unicode="&#x47;" d="M929 517q0 46-12 80t-31 55-46 33-52 18-55 4-62-14-62-36-48-40-34-34q-10-13-27-13t-27 13q-14 15-34 34t-48 40-62 36-62 14-55-4-52-18-46-33-31-55-12-80q0-93 105-198l324-312 324 312q105 105 105 198z m71 0q0-123-128-251l-347-335q-10-10-25-10t-25 10l-348 336-15 15q-10 10-31 36t-38 55-30 67-13 77q0 123 71 192t196 70q34 0 70-12t67-33 54-38 42-38q20 20 42 38t54 38 67 33 70 12q125 0 196-70t71-192z" horiz-adv-x="1000" />

<glyph glyph-name="user" unicode="&#x48;" d="M786 66q0-67-41-106t-108-39h-488q-67 0-108 39t-41 106q0 30 2 58t8 61 15 60 24 55 34 45 48 30 62 11q5 0 24-12t41-27 60-27 75-12 74 12 61 27 41 27 24 12q34 0 62-11t48-30 34-45 24-55 15-60 8-61 2-58z m-179 498q0-88-63-151t-151-63-152 63-62 151 62 152 152 63 151-63 63-152z" horiz-adv-x="785" />

<glyph glyph-name="bullseye" unicode="&#x49;" d="M571 350q0-59-41-101t-101-42-101 42-42 101 42 101 101 42 101-42 41-101z m72 0q0 89-63 152t-151 62-152-62-63-152 63-151 152-63 151 63 63 151z m71 0q0-118-83-202t-202-84-202 84-84 202 84 202 202 84 202-84 83-202z m72 0q0 73-29 139t-76 114-114 76-138 28-139-28-114-76-76-114-29-139 29-139 76-113 114-77 139-28 138 28 114 77 76 113 29 139z m71 0q0-117-57-215t-156-156-215-58-216 58-155 156-58 215 58 215 155 156 216 58 215-58 156-156 57-215z" horiz-adv-x="857" />

<glyph glyph-name="steam" unicode="&#x4a;" d="M883 525q0-56-40-96t-96-40-97 40-39 96 39 96 97 40 96-40 40-96z m-430-414q0 58-41 99t-98 41q-15 0-30-4l58-23q43-17 61-60t0-84q-17-43-59-61t-85 0q-12 4-35 13t-34 14q18-34 51-54t73-20q58 0 98 40t41 99z m463 414q0 70-50 120t-120 50-121-50-50-120 50-121 121-50 120 50 50 121z m84 0q0-106-75-180t-179-74l-244-178q-6-72-61-122t-127-50q-68 0-120 43t-66 107l-128 51v240l217-88q44 27 97 27 7 0 19-1l159 227q1 104 75 178t179 74 179-75 75-179z" horiz-adv-x="1000" />

<glyph glyph-name="steam-squared" unicode="&#x4b;" d="M693 489q0 45-32 76t-76 32-76-32-32-77 32-75 76-32 76 32 32 76z m-340-328q0-46-33-79t-78-32q-31 0-57 17t-40 43q29-12 54-23 34-13 67 1t47 48 0 67-48 47l-46 19q12 2 23 2 46 0 78-32t33-78z m504 457v-536q0-66-47-113t-114-48h-535q-67 0-114 48t-47 113v86l96-39q11-51 52-85t94-33q58 0 101 39t49 96l192 141q84 0 143 59t59 143-59 141-143 59q-82 0-141-58t-60-141l-125-180q-5 1-16 1-42 0-76-21l-166 67v261q0 66 47 113t114 48h535q67 0 114-48t47-113z m-138-130q0-56-39-95t-96-40-95 40-39 95 39 95 95 40q57 0 96-39t39-96z" horiz-adv-x="857" />

<glyph glyph-name="ccw" unicode="&#x4c;" d="M857 350q0-87-34-166t-91-137-137-92-166-34q-96 0-183 41t-147 114q-4 6-4 13t5 11l76 77q6 5 15 5t12-7q41-53 100-82t126-29q58 0 110 23t92 61 61 91 22 111-22 111-61 91-92 61-109 23-106-20-90-57l77-77q17-16 8-38t-33-23h-250q-15 0-25 11t-11 25v250q0 24 22 34t39-9l72-72q60 57 137 88t159 31q87 0 166-34t137-92 91-137 34-166z" horiz-adv-x="857" />

<glyph glyph-name="cart-plus" unicode="&#x4d;" d="M679 457q0 15-11 25t-25 11h-72v71q0 15-10 25t-25 11-25-11-11-25v-71h-71q-15 0-26-11t-10-25 10-25 26-11h71v-71q0-14 11-25t25-11 25 11 10 25v71h72q14 0 25 11t11 25z m-322-464q0-30-21-51t-50-21-51 21-21 51 21 50 51 21 50-21 21-50z m500 0q0-30-21-51t-50-21-51 21-21 51 21 50 51 21 50-21 21-50z m72 607v-286q0-13-9-23t-23-12l-583-68 3-12q2-8 3-15t1-14-13-34h513q15 0 26-11t10-25-10-25-26-11h-571q-14 0-25 11t-11 25q0 8 6 22t17 33 11 21l-98 460h-114q-15 0-25 10t-11 25 11 26 25 10h143q9 0 16-3t11-9 7-14 4-15 3-16l3-14h670q14 0 25-11t11-25z" horiz-adv-x="928" />

<glyph glyph-name="basket" unicode="&#x4e;" d="M357-7q0-29-21-50t-50-22-50 22-22 50 22 50 50 21 50-21 21-50z m500 0q0-29-21-50t-50-22-51 22-21 50 21 50 51 21 50-21 21-50z m72 607v-286q0-13-10-23t-22-12l-583-68q7-34 7-41t-13-34h513q15 0 26-11t10-25-10-25-26-11h-571q-14 0-25 11t-11 25q0 6 5 18t9 20 12 22 8 16l-98 460h-114q-15 0-25 10t-11 25 11 26 25 10h143q9 0 16-3t10-9 8-14 4-14 3-17 3-14h670q14 0 25-11t11-25z" horiz-adv-x="928" />

<glyph glyph-name="bomb" unicode="&#x4f;" d="M319 521q-6 14-19 20t-28 0q-60-25-106-71t-71-107q-6-14 0-27t19-19q8-3 14-3 23 0 33 23 19 46 55 82t83 55q14 6 20 20t0 27z m525 199l26-26-136-135 38-38q10-11 10-26t-10-25l-36-36q50-90 50-191 0-80-31-153t-84-125-126-84-152-31-153 31-125 84-84 125-31 153 31 152 84 126 125 84 153 31q101 0 191-50l36 36q11 10 25 10t26-10l38-38z m5 31q-6-5-13-5t-12 5l-51 50q-5 6-5 13t5 13 13 5 13-5l50-51q5-5 5-12t-5-13z m128-128q-6-5-13-5t-13 5l-50 51q-5 5-5 12t5 13 13 5 12-5l51-50q5-6 5-13t-5-13z m23 102q0-8-5-13t-13-5h-53q-8 0-13 5t-5 13 5 13 13 5h53q8 0 13-5t5-13z m-107 107v-54q0-7-5-12t-13-5-13 5-5 12v54q0 8 5 13t13 5 13-5 5-13z m84-31l-51-50q-5-5-12-5t-12 5-6 13 5 12l50 51q6 5 13 5t13-5 5-13-5-13z" horiz-adv-x="1000" />

<glyph glyph-name="book" unicode="&#x50;" d="M915 583q22-32 10-72l-154-505q-10-36-42-60t-69-25h-515q-43 0-83 30t-55 74q-14 37-1 71l1 15q1 13 3 20 0 5-2 12t-2 11q1 6 5 12l18 26q13 21 25 51t17 51q2 6 0 17t0 17 9 14l10 13q12 20 23 51t14 51q1 5-1 17t0 16q2 7 12 17l13 13q10 14 23 47t16 54q0 4-2 14t-1 15 5 10 10 13l10 11 9 17q5 10 8 20t9 20l11 18q5 8 15 13t20 6 26-3v-1q21 5 28 5h425q41 0 63-32t10-72l-152-506q-20-66-40-85t-72-20h-485q-15 0-21-8t-1-24q14-39 81-39h515q16 0 31 9t19 23l168 550q4 13 3 32 21-8 33-24z m-594-1q-2-7 1-12t11-6h339q8 0 15 6t9 12l12 36q2 7-2 12t-11 6h-339q-7 0-14-6t-9-12z m-46-143q-3-7 1-12t11-6h339q7 0 14 6t10 12l11 36q3 7-1 13t-11 5h-339q-8 0-14-5t-10-13z" horiz-adv-x="928" />

<glyph glyph-name="zoom-in" unicode="&#x51;" d="M571 404v-36q0-7-5-13t-12-5h-125v-125q0-7-6-13t-12-5h-36q-7 0-13 5t-5 13v125h-125q-7 0-12 5t-6 13v36q0 7 6 12t12 5h125v125q0 8 5 13t13 5h36q7 0 12-5t6-13v-125h125q7 0 12-5t5-12z m72-18q0 103-74 176t-176 74-177-74-73-176 73-177 177-73 176 73 74 177z m286-465q0-29-21-50t-51-21-50 21l-191 191q-100-69-223-69-80 0-153 31t-125 84-84 125-31 153 31 152 84 126 125 84 153 31 152-31 126-84 84-126 31-152q0-123-69-223l191-191q21-21 21-51z" horiz-adv-x="928" />

<glyph glyph-name="arrows-cw" unicode="&#x52;" d="M843 261v-4q-36-150-150-243t-267-93q-81 0-157 31t-136 88l-72-72q-11-11-25-11t-25 11-11 25v250q0 14 11 25t25 11h250q14 0 25-11t10-25-10-25l-77-77q40-37 90-57t105-20q74 0 139 37t104 99q6 10 29 66 5 13 17 13h107q8 0 13-6t5-12z m14 446v-250q0-14-10-25t-26-11h-250q-14 0-25 11t-10 25 10 25l77 77q-82 77-194 77-75 0-140-37t-104-99q-6-10-29-66-5-13-17-13h-111q-7 0-13 6t-5 12v4q36 150 151 243t268 93q81 0 158-31t137-88l72 72q11 11 25 11t26-11 10-25z" horiz-adv-x="857" />

<glyph glyph-name="heart" unicode="&#x53;" d="M500-79q-14 0-25 10l-348 336-15 15q-10 10-31 36t-38 55-30 67-13 77q0 123 71 192t196 70q34 0 70-12t67-33 54-38 42-38q20 20 42 38t54 38 67 33 70 12q125 0 196-70t71-192-128-251l-347-335q-10-10-25-10z" horiz-adv-x="1000" />

<glyph glyph-name="sitemap" unicode="&#x54;" d="M1000 154v-179q0-22-16-38t-38-16h-178q-22 0-38 16t-16 38v179q0 22 16 38t38 15h53v107h-285v-107h53q23 0 38-15t16-38v-179q0-22-16-38t-38-16h-178q-23 0-38 16t-16 38v179q0 22 16 38t38 15h53v107h-285v-107h53q22 0 38-15t16-38v-179q0-22-16-38t-38-16h-178q-23 0-38 16t-16 38v179q0 22 16 38t38 15h53v107q0 29 21 51t51 21h285v107h-53q-23 0-38 15t-16 38v179q0 22 16 38t38 16h178q23 0 38-16t16-38v-179q0-22-16-38t-38-15h-53v-107h285q29 0 51-21t21-51v-107h53q23 0 38-15t16-38z" horiz-adv-x="1000" />

<glyph glyph-name="mute" unicode="&#x55;" d="M151 323l-56-57q-24 58-24 120v71q0 15 11 25t25 11 25-11 11-25v-71q0-30 8-63z m622 336l-202-202v-71q0-74-52-126t-126-53q-31 0-61 11l-54-54q55-28 115-28 103 0 176 73t74 177v71q0 15 10 25t26 11 25-11 10-25v-71q0-124-82-215t-203-104v-74h142q15 0 26-11t10-25-10-25-26-11h-357q-14 0-25 11t-10 25 10 25 25 11h143v74q-70 7-131 45l-142-142q-5-6-13-6t-12 6l-46 46q-6 5-6 13t6 12l688 689q6 6 13 6t13-6l46-46q5-5 5-13t-5-12z m-212 73l-347-346v285q0 74 53 127t126 52q57 0 103-33t65-85z" horiz-adv-x="785" />

<glyph glyph-name="angle-circled-down" unicode="&#x56;" d="M454 125l253 253q11 11 11 26t-11 25l-57 57q-10 10-25 10t-25-10l-171-172-172 172q-10 10-25 10t-25-10l-57-57q-10-11-10-25t10-26l253-253q11-10 26-10t25 10z m403 225q0-117-57-215t-156-156-215-58-216 58-155 156-58 215 58 215 155 156 216 58 215-58 156-156 57-215z" horiz-adv-x="857" />

<glyph glyph-name="zoom-out" unicode="&#x57;" d="M571 404v-36q0-7-5-13t-12-5h-322q-7 0-12 5t-6 13v36q0 7 6 12t12 5h322q7 0 12-5t5-12z m72-18q0 103-74 176t-176 74-177-74-73-176 73-177 177-73 176 73 74 177z m286-465q0-29-21-50t-51-21-50 21l-191 191q-100-69-223-69-80 0-153 31t-125 84-84 125-31 153 31 152 84 126 125 84 153 31 152-31 126-84 84-126 31-152q0-123-69-223l191-191q21-21 21-51z" horiz-adv-x="928" />

<glyph glyph-name="angle-circled-right" unicode="&#x58;" d="M400 72l253 253q11 11 11 25t-11 25l-253 253q-10 11-25 11t-25-11l-57-56q-11-11-11-26t11-25l171-171-171-171q-11-11-11-25t11-26l57-57q11-10 25-10t25 10v1z m457 278q0-117-57-215t-156-156-215-58-216 58-155 156-58 215 58 215 155 156 216 58 215-58 156-156 57-215z" horiz-adv-x="857" />

<glyph glyph-name="play" unicode="&#x59;" d="M772 333l-741-412q-13-7-22-2t-9 20v822q0 14 9 20t22-2l741-412q13-7 13-17t-13-17z" horiz-adv-x="785" />

<glyph glyph-name="angle-circled-left" unicode="&#x5a;" d="M507 72l57 56q11 11 11 26t-11 25l-171 171 171 171q11 11 11 25t-11 25l-57 57q-10 11-25 11t-25-11l-253-253q-11-11-11-25t11-25l253-254q11-10 25-10t25 10v1z m350 278q0-117-57-215t-156-156-215-58-216 58-155 156-58 215 58 215 155 156 216 58 215-58 156-156 57-215z" horiz-adv-x="857" />

<glyph glyph-name="user-plus" unicode="&#x5b;" d="M393 350q-89 0-152 63t-62 151 62 152 152 63 151-63 63-152-63-151-151-63z m536-71h196q7 0 13-6t5-12v-107q0-8-5-13t-13-5h-196v-197q0-7-6-12t-12-6h-107q-8 0-13 6t-5 12v197h-197q-7 0-12 5t-6 13v107q0 7 6 12t12 6h197v196q0 7 5 13t13 5h107q7 0 12-5t6-13v-196z m-411-125q0-29 21-51t50-21h143v-133q-38-28-95-28h-488q-67 0-108 39t-41 106q0 30 2 58t8 61 15 60 24 55 34 45 48 30 62 11q11 0 22-10 44-34 86-51t92-17 92 17 86 51q11 10 22 10 73 0 121-54h-125q-29 0-50-21t-21-50v-107z" horiz-adv-x="1142.9" />

<glyph glyph-name="columns" unicode="&#x5d;" d="M89-7h340v643h-358v-625q0-7 6-13t12-5z m768 18v625h-357v-643h339q8 0 13 5t5 13z m72 678v-678q0-37-27-63t-63-27h-750q-36 0-63 27t-26 63v678q0 37 26 63t63 27h750q37 0 63-27t27-63z" horiz-adv-x="928.6" />

<glyph glyph-name="commenting-o" unicode="&#x5e;" d="M357 350q0-30-21-50t-50-21-51 21-21 50 21 51 51 20 50-20 21-51z m214 0q0-30-20-50t-51-21-50 21-21 50 21 51 50 20 51-20 20-51z m215 0q0-30-21-50t-51-21-50 21-21 50 21 51 50 20 51-20 21-51z m-286 286q-114 0-213-39t-157-105-59-142q0-62 40-119t113-98l48-28-15-53q-13-51-39-97 85 36 154 96l24 21 32-3q38-5 72-5 114 0 213 39t157 105 59 142-59 142-157 105-213 39z m500-286q0-97-67-179t-182-130-251-48q-39 0-81 4-110-97-257-135-27-8-63-12h-3q-8 0-15 6t-9 15v1q-2 2 0 6t1 6 2 5l4 5t4 5 4 5q4 5 17 19t20 22 17 22 18 28 15 33 15 42q-88 50-138 123t-51 157q0 73 40 139t106 114 160 76 194 28 194-28 160-76 106-114 40-139z" horiz-adv-x="1000" />

<glyph glyph-name="bell" unicode="&#x61;" d="M509-96q0 8-9 8-33 0-57 24t-23 57q0 9-9 9t-9-9q0-41 29-70t69-28q9 0 9 9z m-372 160h726q-149 168-149 465 0 28-13 58t-39 58-67 45-95 17-95-17-67-45-39-58-13-58q0-297-149-465z m827 0q0-29-21-50t-50-21h-250q0-59-42-101t-101-42-101 42-42 101h-250q-29 0-50 21t-21 50q28 24 51 49t47 67 42 89 27 114 11 146q0 84 66 157t171 89q-5 10-5 21 0 23 16 38t38 16 38-16 16-38q0-11-5-21 106-16 171-89t66-157q0-78 11-146t27-114 42-89 47-67 51-49z" horiz-adv-x="1000" />

<glyph glyph-name="resize-full" unicode="&#x62;" d="M421 261q0-8-5-13l-185-185 80-81q10-10 10-25t-10-25-25-11h-250q-15 0-25 11t-11 25v250q0 15 11 25t25 11 25-11l80-80 185 185q6 6 13 6t13-6l64-63q5-6 5-13z m436 482v-250q0-15-10-25t-26-11-25 11l-80 80-185-185q-6-6-13-6t-13 6l-64 63q-5 6-5 13t5 13l186 185-81 81q-10 10-10 25t10 25 25 11h250q15 0 26-11t10-25z" horiz-adv-x="857" />

<glyph glyph-name="right-open" unicode="&#x63;" d="M618 361l-414-415q-11-10-25-10t-26 10l-92 93q-11 11-11 25t11 25l296 297-296 296q-11 11-11 25t11 25l92 93q11 10 26 10t25-10l414-414q10-11 10-25t-10-25z" horiz-adv-x="714" />

<glyph glyph-name="cog-alt" unicode="&#x64;" d="M500 350q0 59-42 101t-101 42-101-42-42-101 42-101 101-42 101 42 42 101z m429-286q0 29-22 51t-50 21-50-21-21-51q0-29 21-50t50-21 51 21 21 50z m0 572q0 29-22 50t-50 21-50-21-21-50 21-51 50-21 51 21 21 51z m-215-235v-103q0-6-4-11t-9-6l-86-14q-6-19-18-42 19-27 50-64 4-6 4-12t-4-10q-13-17-46-50t-44-33q-6 0-11 4l-64 50q-21-11-43-17-6-60-13-87-4-13-17-13h-104q-6 0-11 4t-5 10l-13 85q-19 6-42 18l-66-50q-4-4-10-4t-13 4q-80 75-80 90 0 5 4 10 5 8 23 30t26 34q-13 24-20 46l-85 13q-5 1-9 5t-4 11v103q0 6 4 11t9 6l86 14q7 19 18 42-19 27-50 64-4 6-4 12t4 10q12 17 46 50t44 33q6 0 12-4l64-50q19 10 43 18 6 60 13 86 3 13 16 13h104q6 0 11-4t6-10l13-85q19-6 41-17l66 49q5 4 12 4t11-4q81-75 81-90 0-5-4-10l-24-30q-17-21-25-34 13-27 19-46l85-12q5-2 9-6t4-11z m357-298v-78q0-9-83-17-6-15-16-29 28-63 28-77 0-2-2-4-68-40-69-40-5 0-26 27l-29 37q-11-1-17-1t-17 1q-7-11-29-37t-25-27q-1 0-69 40-3 2-3 4 0 14 29 77-10 14-17 29-83 8-83 17v78q0 9 83 18 7 16 17 29-29 63-29 77 0 2 3 4l52 30q16 9 17 9 4 0 25-26t29-38l17 1 17-1q28 40 51 63l4 1q2 0 69-39 2-2 2-4 0-14-28-77 9-13 16-29 83-9 83-18z m0 572v-78q0-9-83-18-6-15-16-29 28-63 28-77 0-2-2-4-68-39-69-39-5 0-26 26t-29 38q-11-1-17-1t-17 1q-7-12-29-38t-24-26-70 39q-3 2-3 4 0 14 29 77-10 14-17 29-83 9-83 18v78q0 9 83 17 7 16 17 29-29 63-29 77 0 2 3 4l52 30q16 9 17 9 4 0 25-26t29-38q12 2 17 2t17-2q28 40 51 63l4 1q2 0 69-39 2-2 2-4 0-14-28-77 9-13 16-29 83-8 83-17z" horiz-adv-x="1071" />

<glyph glyph-name="ok" unicode="&#x65;" d="M932 534q0-22-15-38l-480-480q-16-15-38-15t-38 15l-278 278q-15 16-15 38t15 38l76 76q16 16 38 16t38-16l164-165 366 367q16 16 38 16t38-16l76-76q15-16 15-38z" horiz-adv-x="1000" />

<glyph glyph-name="wrench" unicode="&#x66;" d="M214 29q0 14-10 25t-25 10-26-10-10-25 10-26 26-10 25 10 10 26z m360 234l-381-381q-21-20-50-20t-51 20l-59 61q-21 20-21 49t21 52l380 380q22-55 64-97t97-64z m353 243q0-22-12-59-27-75-92-122t-144-46q-104 0-177 73t-73 177 73 176 177 74q32 0 67-10t60-26q9-6 9-15t-9-16l-163-94v-125l108-60q2 2 44 27l75 45q33 20 41 20t12-5 4-14z" horiz-adv-x="928" />

<glyph glyph-name="certificate" unicode="&#x67;" d="M768 350l77-75q17-16 11-39t-29-29l-105-27 30-103q6-23-11-39-16-18-39-11l-104 30-27-105q-5-23-28-30-7-1-11-1-17 0-28 13l-75 77-76-77q-15-17-39-12-23 7-28 30l-27 105-104-30q-23-7-39 11-17 16-10 39l29 103-105 27q-22 6-28 29t10 39l77 75-77 75q-17 16-10 39t28 29l105 27-29 103q-7 23 10 39 16 18 39 11l104-29 27 104q5 23 28 30t39-12l76-77 75 77q16 17 39 11t28-29l27-104 104 29q23 7 39-11 17-16 11-39l-30-103 105-27q22-6 29-29t-11-39z" horiz-adv-x="857" />

<glyph glyph-name="bug" unicode="&#x68;" d="M911 314q0-14-11-25t-25-10h-125q0-96-37-162l116-117q10-11 10-25t-10-25-25-11-26 11l-110 110-8-7q-5-4-24-16t-36-21-46-16-54-7v500h-71v-500q-29 0-57 7t-49 19-36 22-25 18l-8 8-102-116q-11-12-27-12-13 0-24 9t-11 25 8 26l113 127q-32 63-32 153h-125q-15 0-25 10t-11 25 11 25 25 11h125v164l-97 97q-11 10-11 25t11 25 25 10 25-10l97-97h471l96 97q11 10 25 10t26-10 10-25-10-25l-97-97v-164h125q15 0 25-11t11-25z m-268 322h-357q0 74 52 126t126 52 127-52 52-126z" horiz-adv-x="928" />

<glyph glyph-name="money" unicode="&#x69;" d="M429 207h214v54h-72v250h-63l-83-77 43-44q24 20 31 31h1v-160h-71v-54z m285 143q0-39-11-79t-34-75-56-56-77-22-77 22-57 56-33 75-12 79 12 79 33 75 57 56 77 22 77-22 56-56 34-75 11-79z m286-143v286q-59 0-101 42t-42 101h-643q0-59-42-101t-101-42v-286q60 0 101-42t42-101h643q0 59 42 101t101 42z m71 464v-642q0-15-10-26t-25-10h-1000q-15 0-25 10t-11 26v642q0 15 11 26t25 10h1000q14 0 25-10t10-26z" horiz-adv-x="1071" />

<glyph glyph-name="server" unicode="&#x6a;" d="M71 64h572v72h-572v-72z m0 286h572v71h-572v-71z m875-250q0 22-15 38t-38 16-38-16-16-38 16-38 38-16 38 16 15 38z m-875 536h572v71h-572v-71z m875-250q0 22-15 38t-38 15-38-15-16-38 16-38 38-16 38 16 15 38z m0 285q0 23-15 38t-38 16-38-16-16-38 16-38 38-15 38 15 15 38z m54-464v-214h-1000v214h1000z m0 286v-214h-1000v214h1000z m0 286v-215h-1000v215h1000z" horiz-adv-x="1000" />

<glyph glyph-name="award" unicode="&#x6b;" d="M256 357q-42 91-42 207h-143v-53q0-44 53-91t132-63z m601 154v53h-143q0-116-41-207 79 16 131 63t53 91z m72 71v-71q0-40-24-80t-62-73-97-54-120-25q-23-30-53-53-21-19-29-40t-8-50 17-51 54-21q42 0 75-25t32-64v-36q0-8-5-13t-13-5h-464q-8 0-13 5t-5 13v36q0 39 33 64t74 25q38 0 55 21t17 50-8 51-30 40q-29 23-53 53-63 3-120 25t-96 54-63 73-23 80v71q0 22 16 38t38 16h160v53q0 37 27 63t63 27h321q37 0 63-27t26-63v-53h161q22 0 38-16t16-38z" horiz-adv-x="928" />

<glyph glyph-name="search" unicode="&#x6c;" d="M643 386q0 103-74 176t-176 74-177-74-73-176 73-177 177-73 176 73 74 177z m286-465q0-29-22-50t-51-21-49 21l-191 191q-100-69-223-69-80 0-153 31t-125 84-84 125-31 153 31 152 84 126 125 84 153 31 152-31 126-84 84-126 31-152q0-123-69-223l191-191q21-21 21-51z" horiz-adv-x="928" />

<glyph glyph-name="cart-arrow-down" unicode="&#x6d;" d="M714 457q0 15-10 25t-25 11-26-11l-82-81v163q0 15-10 25t-25 11-25-11-11-25v-163l-82 81q-11 11-25 11t-25-11-11-25 11-25l143-143q10-10 25-10t25 10l143 143q10 11 10 25z m-357-464q0-30-21-51t-50-21-51 21-21 51 21 50 51 21 50-21 21-50z m500 0q0-30-21-51t-50-21-51 21-21 51 21 50 51 21 50-21 21-50z m72 607v-286q0-13-9-23t-23-12l-583-68 3-12q2-8 3-15t1-14-13-34h513q15 0 26-11t10-25-10-25-26-11h-571q-14 0-25 11t-11 25q0 8 6 22t17 33 11 21l-98 460h-114q-15 0-25 10t-11 25 11 26 25 10h143q9 0 16-3t11-9 7-14 4-15 3-16l3-14h670q14 0 25-11t11-25z" horiz-adv-x="1000" />

<glyph glyph-name="resize-small" unicode="&#x6e;" d="M429 314v-250q0-14-11-25t-25-10-25 10l-81 81-185-186q-5-5-13-5t-13 5l-63 64q-6 5-6 13t6 13l185 185-80 80q-11 11-11 25t11 25 25 11h250q14 0 25-11t11-25z m421 375q0-7-6-13l-185-185 80-80q11-11 11-25t-11-25-25-11h-250q-14 0-25 11t-10 25v250q0 14 10 25t25 10 25-10l81-81 185 186q6 5 13 5t13-5l63-64q6-5 6-13z" horiz-adv-x="857" />

<glyph glyph-name="mail-alt" unicode="&#x6f;" d="M1000 454v-443q0-37-26-63t-63-27h-822q-36 0-63 27t-26 63v443q25-28 56-49 202-137 278-192 32-24 51-37t53-27 61-13h2q28 0 61 13t53 27 51 37q95 68 278 192 32 22 56 49z m0 164q0-44-27-84t-68-69q-210-146-262-181l-53-39q-12-9-29-18t-33-15-27-5h-2q-12 0-27 5t-33 15-29 18l-53 39-147 101q-96 66-114 80-35 23-65 64t-31 77q0 43 23 72t66 29h822q36 0 62-26t27-63z" horiz-adv-x="1000" />

<glyph glyph-name="bell-alt" unicode="&#x70;" d="M509-96q0 8-9 8-33 0-57 24t-23 57q0 9-9 9t-9-9q0-41 29-70t69-28q9 0 9 9z m455 160q0-29-21-50t-50-21h-250q0-59-42-101t-101-42-101 42-42 101h-250q-29 0-50 21t-21 50q28 24 51 49t47 67 42 89 27 114 11 146q0 84 66 157t171 89q-5 10-5 21 0 23 16 38t38 16 38-16 16-38q0-11-5-21 106-16 171-89t66-157q0-78 11-146t27-114 42-89 47-67 51-49z" horiz-adv-x="1000" />

<glyph glyph-name="th" unicode="&#x71;" d="M286 154v-108q0-22-16-37t-38-16h-178q-23 0-38 16t-16 37v108q0 22 16 38t38 15h178q22 0 38-15t16-38z m0 285v-107q0-22-16-38t-38-15h-178q-23 0-38 15t-16 38v107q0 23 16 38t38 16h178q22 0 38-16t16-38z m357-285v-108q0-22-16-37t-38-16h-178q-23 0-38 16t-16 37v108q0 22 16 38t38 15h178q23 0 38-15t16-38z m-357 571v-107q0-22-16-38t-38-16h-178q-23 0-38 16t-16 38v107q0 22 16 38t38 16h178q22 0 38-16t16-38z m357-286v-107q0-22-16-38t-38-15h-178q-23 0-38 15t-16 38v107q0 23 16 38t38 16h178q23 0 38-16t16-38z m357-285v-108q0-22-16-37t-38-16h-178q-22 0-38 16t-16 37v108q0 22 16 38t38 15h178q23 0 38-15t16-38z m-357 571v-107q0-22-16-38t-38-16h-178q-23 0-38 16t-16 38v107q0 22 16 38t38 16h178q23 0 38-16t16-38z m357-286v-107q0-22-16-38t-38-15h-178q-22 0-38 15t-16 38v107q0 23 16 38t38 16h178q23 0 38-16t16-38z m0 286v-107q0-22-16-38t-38-16h-178q-22 0-38 16t-16 38v107q0 22 16 38t38 16h178q23 0 38-16t16-38z" horiz-adv-x="1000" />

<glyph glyph-name="cancel" unicode="&#x72;" d="M724 112q0-22-15-38l-76-76q-16-15-38-15t-38 15l-164 165-164-165q-16-15-38-15t-38 15l-76 76q-16 16-16 38t16 38l164 164-164 164q-16 16-16 38t16 38l76 76q16 16 38 16t38-16l164-164 164 164q16 16 38 16t38-16l76-76q15-15 15-38t-15-38l-164-164 164-164q15-15 15-38z" horiz-adv-x="785" />

<glyph glyph-name="cog" unicode="&#x73;" d="M571 350q0 59-41 101t-101 42-101-42-42-101 42-101 101-42 101 42 41 101z m286 61v-124q0-7-4-13t-11-7l-104-16q-10-30-21-51 19-27 59-77 6-6 6-13t-5-13q-15-21-55-61t-53-39q-7 0-14 5l-77 60q-25-13-51-21-9-76-16-104-4-16-20-16h-124q-8 0-14 5t-6 12l-16 103q-27 9-50 21l-79-60q-6-5-14-5t-14 6q-70 64-92 94-4 5-4 12t5 13q8 12 28 37t30 40q-15 28-23 55l-102 15q-7 1-11 7t-5 13v124q0 7 5 13t10 7l104 16q8 25 22 51-23 32-60 77-6 7-6 13t5 13q15 20 55 60t53 40q7 0 15-5l77-60q24 13 50 21 9 76 17 104 3 15 20 15h124q7 0 13-4t7-12l15-103q28-9 50-21l80 60q5 5 13 5t14-5q72-67 92-95 4-5 4-12t-4-13l-59-77q14-28 23-55l102-15q7-1 12-7t4-13z" horiz-adv-x="857" />

<glyph glyph-name="users" unicode="&#x74;" d="M331 350q-90-3-148-71h-75q-45 0-77 22t-31 66q0 197 69 197 4 0 25-11t54-24 66-12q38 0 75 13-3-21-3-37 0-78 45-143z m598-356q0-66-41-105t-108-39h-488q-68 0-108 39t-41 105q0 30 2 58t8 61 14 61 24 54 35 45 48 30 62 11q6 0 24-12t41-26 59-27 76-12 75 12 60 27l41 26q16 10 23 12 35 0 63-11t47-30 35-45 24-54 15-61 8-61z m-572 713q0-59-42-101t-101-42-101 42-42 101 42 101 101 42 101-42 42-101z m393-214q0-89-63-152t-151-62-152 62-63 152 63 151 152 63 151-63 63-151z m321-126q0-43-31-66t-77-22h-75q-57 68-147 71 45 65 45 143 0 16-3 37 37-13 74-13 33 0 67 12t54 24 24 11q69 0 69-197z m-71 340q0-59-42-101t-101-42-101 42-42 101 42 101 101 42 101-42 42-101z" horiz-adv-x="1071" />

<glyph glyph-name="exchange" unicode="&#x75;" d="M1000 189v-107q0-7-5-12t-13-6h-768v-107q0-7-5-12t-13-6q-6 0-13 6l-178 178q-5 5-5 13t5 13l179 178q5 5 13 5t12-5 5-13v-107h768q7 0 13-5t5-13z m0 304q0-8-5-13l-179-179q-5-5-12-5t-13 6-5 12v107h-768q-7 0-13 6t-5 12v107q0 8 5 13t13 5h768v107q0 8 5 13t12 5 14-5l178-178q5-5 5-13z" horiz-adv-x="1000" />

<glyph glyph-name="up-open" unicode="&#x76;" d="M939 107l-92-92q-11-10-26-10t-25 10l-296 297-296-297q-11-10-25-10t-26 10l-92 92q-11 11-11 26t11 25l414 414q11 10 25 10t25-10l414-414q11-11 11-25t-11-26z" horiz-adv-x="1000" />

<glyph glyph-name="video" unicode="&#x77;" d="M214-43v72q0 14-10 25t-25 10h-72q-14 0-25-10t-11-25v-72q0-14 11-25t25-11h72q14 0 25 11t10 25z m0 214v72q0 14-10 25t-25 11h-72q-14 0-25-11t-11-25v-72q0-14 11-25t25-10h72q14 0 25 10t10 25z m0 215v71q0 15-10 25t-25 11h-72q-14 0-25-11t-11-25v-71q0-15 11-25t25-11h72q14 0 25 11t10 25z m572-429v286q0 14-11 25t-25 11h-429q-14 0-25-11t-10-25v-286q0-14 10-25t25-11h429q15 0 25 11t11 25z m-572 643v71q0 15-10 26t-25 10h-72q-14 0-25-10t-11-26v-71q0-15 11-25t25-11h72q14 0 25 11t10 25z m786-643v72q0 14-11 25t-25 10h-71q-15 0-25-10t-11-25v-72q0-14 11-25t25-11h71q15 0 25 11t11 25z m-214 429v285q0 15-11 26t-25 10h-429q-14 0-25-10t-10-26v-285q0-15 10-25t25-11h429q15 0 25 11t11 25z m214-215v72q0 14-11 25t-25 11h-71q-15 0-25-11t-11-25v-72q0-14 11-25t25-10h71q15 0 25 10t11 25z m0 215v71q0 15-11 25t-25 11h-71q-15 0-25-11t-11-25v-71q0-15 11-25t25-11h71q15 0 25 11t11 25z m0 214v71q0 15-11 26t-25 10h-71q-15 0-25-10t-11-26v-71q0-15 11-25t25-11h71q15 0 25 11t11 25z m71 89v-750q0-37-26-63t-63-26h-893q-36 0-63 26t-26 63v750q0 37 26 63t63 27h893q37 0 63-27t26-63z" horiz-adv-x="1071" />

<glyph glyph-name="left-open" unicode="&#x78;" d="M653 682l-296-296 296-297q11-10 11-25t-11-25l-92-93q-11-10-25-10t-25 10l-414 415q-11 10-11 25t11 25l414 414q10 10 25 10t25-10l92-93q11-10 11-25t-11-25z" horiz-adv-x="714" />

<glyph glyph-name="menu" unicode="&#x79;" d="M857 100v-71q0-15-10-25t-26-11h-785q-15 0-25 11t-11 25v71q0 15 11 25t25 11h785q15 0 26-11t10-25z m0 286v-72q0-14-10-25t-26-10h-785q-15 0-25 10t-11 25v72q0 14 11 25t25 10h785q15 0 26-10t10-25z m0 285v-71q0-15-10-25t-26-11h-785q-15 0-25 11t-11 25v71q0 15 11 26t25 10h785q15 0 26-10t10-26z" horiz-adv-x="857" />

<glyph glyph-name="down-open" unicode="&#x7a;" d="M939 399l-414-413q-10-11-25-11t-25 11l-414 413q-11 11-11 26t11 25l92 92q11 11 26 11t25-11l296-296 296 296q11 11 25 11t26-11l92-92q11-11 11-25t-11-26z" horiz-adv-x="1000" />

<glyph glyph-name="youtube" unicode="&#x7b;" d="M542 156v-118q0-37-22-37-13 0-25 12v168q12 12 25 12 22 0 22-37z m189-1v-25h-51v25q0 38 25 38t26-38z m-540 122h60v52h-174v-52h59v-318h55v318z m161-318h50v276h-50v-211q-17-23-32-23-10 0-11 11-1 2-1 20v203h-50v-218q0-28 5-41 7-21 32-21 27 0 57 34v-30z m240 83v110q0 41-5 55-10 31-40 31-28 0-52-30v121h-50v-370h50v27q25-31 52-31 30 0 40 31 5 15 5 56z m188 6v7h-51q0-29-1-34-4-20-22-20-26 0-26 38v49h100v57q0 44-15 65-22 28-59 28-38 0-60-28-15-21-15-65v-96q0-44 16-65 22-29 60-29 40 0 60 30 10 15 12 30 1 5 1 33z m-339 509v117q0 39-24 39t-24-39v-117q0-39 24-39t24 39z m401-419q0-131-14-195-8-33-33-56t-57-25q-102-12-309-12t-310 12q-32 3-57 25t-32 56q-15 62-15 195 0 131 15 195 7 33 32 56t57 26q103 11 310 11t309-11q33-4 58-26t32-56q14-62 14-195z m-557 712h57l-67-223v-151h-56v151q-8 42-34 119-21 57-37 104h60l39-147z m207-186v-97q0-46-16-66-21-29-59-29-37 0-59 29-15 21-15 66v97q0 45 15 66 22 28 59 28 38 0 59-28 16-21 16-66z m187 91v-279h-51v31q-30-35-58-35-25 0-33 21-4 13-4 42v220h51v-205q0-19 0-20 2-12 12-12 15 0 32 24v213h51z" horiz-adv-x="857.1" />

<glyph glyph-name="commenting" unicode="&#x7d;" d="M357 350q0 30-21 51t-50 20-51-20-21-51 21-50 51-21 50 21 21 50z m214 0q0 30-20 51t-51 20-50-20-21-51 21-50 50-21 51 21 20 50z m215 0q0 30-21 51t-51 20-50-20-21-51 21-50 50-21 51 21 21 50z m214 0q0-97-67-179t-182-130-251-48q-61 0-118 10-96-97-242-128-29-6-48-7-7-1-13 3t-7 10q-2 9 11 21 3 3 13 12t15 13 13 14 13 18 11 20 12 27 8 32 7 41q-82 50-128 121t-47 150q0 97 67 179t182 130 251 48 251-48 182-130 67-179z" horiz-adv-x="1000" />

<glyph glyph-name="chat" unicode="&#xa3;" d="M786 421q0-77-53-143t-143-104-197-38q-48 0-98 9-70-49-155-72-21-5-48-9h-2q-6 0-12 5t-6 12q-1 1-1 3t1 4 1 3l1 3t2 3 2 3 3 3 2 2q3 3 13 14t15 16 12 17 14 21 11 25q-69 40-108 98t-40 125q0 78 53 144t143 104 197 38 197-38 143-104 53-144z m214-142q0-67-40-126t-108-98q5-14 11-25t14-21 13-16 14-17 13-14q0 0 2-2t3-3 2-3 2-3l1-3t1-3 1-4-1-3q-2-8-7-13t-12-4q-28 4-48 9-86 23-156 72-50-9-98-9-151 0-263 74 32-3 49-3 90 0 172 25t148 72q69 52 107 119t37 141q0 43-13 85 72-39 114-99t42-128z" horiz-adv-x="1000" />
</font>
</defs>
</svg>
